<?xml version="1.0" encoding="utf-8"?>
<!-- Generator: Adobe Illustrator 19.0.0, SVG Export Plug-In . SVG Version: 6.00 Build 0)  -->
<svg version="1.1" id="Layer_1" xmlns="http://www.w3.org/2000/svg" xmlns:xlink="http://www.w3.org/1999/xlink" x="0px" y="0px"
	 viewBox="-691.3 -78.8 1080 720" style="enable-background:new -691.3 -78.8 1080 720;" xml:space="preserve">
<style type="text/css">
	.st0{fill:#FFFFFF;}
</style>
<g>
	<path class="st0" d="M-244,244.8c-0.7,1.3-1.4,2.5-2.4,4.2c1.2-0.1,1.9,0.1,2.1-0.1c13.2-12.1,25.6-25,37.9-37.9
		c7.5-7.9,16.8-13.9,25.6-21.1c-0.6-0.4-1.5-1.1-2.6-1.8c0.1-0.1,0.2-0.5,0.5-0.6c3.7-2,7.4-3.8,11-6c1.5-0.9,3.8-2.9,3.5-4
		c-1.4-5.4,3.8-6,5.9-8.8c2.8-3.7,6.5-6.6,9.5-10c7.1-8,14-16.3,21.1-24.4c1.9-2.2,3.5-4.7,5.8-6.5c2-1.5,2.4-6.6,6.8-3.9
		c0.1,0.1,0.8-0.2,0.8-0.5c2.6-8.1,13-12.3,11.4-23.7c8.1,9,12.1,18.5,13.7,29.3c0.6-0.1,1.3-0.2,1.9-0.4c-0.8-4.2-0.6-9-2.6-12.6
		c-7.2-13.2-15.6-25.6-22.4-38.9c-3.3-6.4-4.4-14-5.5-21.3c-0.6-3.9,7.3-6.6,11.3-3.4c4.7,3.9,8.7,8.7,12.7,13.4
		c3.2,3.8,5.5,8.1,8.5,12.1c5.8,7.8,11.4,15.7,17.8,23c3.2,3.7,7.5,6.4,11.5,9.2c0.7,0.5,2.9-0.2,3.7-1.1c3.1-3.8,5.7-7.8,8.6-11.5
		c4.1-5.3,12.1-7.1,18.4-4.2c1.6,0.7,3.3,1.4,4.8,2.1c8.8,4.1,11.5,10.4,9.1,19.6c-2,7.4-5.9,13.3-12.4,17.7
		c-2.2,1.5-3.7,4.5-5.5,6.6c-1.5,1.8-2.9,3.5-5.7,0.7c-1.2-1.3-4-1.1-7-1.6c7.1,17.1,5.2,33.3,0.7,49.6c-0.4,0.2-0.7,0.5-1.1,0.5
		c-11.7,0.1-11.7,1.3-10.5,12.6c0.9,9.5,7.8,16.1,9.8,25c0.4,1.8,2.6,3.2,4.2,4.5c6.5,4.9,6.7,9.7,0.9,15.6
		c-0.9,0.9-1.5,2.8-1.4,4.1c1.6,13.4,3.4,26.9,5.5,40.2c0.2,1.6,2.8,3.9,4.7,4.4c5.2,1.1,10.7,0.6,15.7,2.1c7.9,2.6,15.7,6,23,9.9
		c4.4,2.2,4.4,6-0.1,7.9c-8.2,3.5-16.7,7.5-25.4,8.5c-23.8,2.4-47.8,2.5-71.5-2.2c-2.8-0.6-5.8-0.9-8.5-1.6
		c-3.5-0.9-7.2-1.3-9.5-5.5c-2-3.7-6.2-5.2-11-3.8c-1.2,0.4-2.6,0-5.4,0c3.9-3.4,6.8-6,9.8-8.7c0-0.5-0.1-1.1-0.1-1.5
		c-4.4,0.2-8.8,0.9-13.1,0.6c-8.6-0.7-17.2-1.5-25.6-3.3c-5.8-1.2-11.1-1.1-16.5,0.9c-1.4,0.5-2.9,0.5-5.3,0.8
		c0.5,4.2,1.3,8.4,1.2,12.5c0,2.4-1.1,5.4-2.7,6.7c-0.9,0.8-4.5-0.8-6.4-2.1c-4.8-3.3-5.8-8.4-6.8-14.1c-1.3-7.3-5.1-14.1-7.3-21.3
		c-1.2-3.8-2.7-8.2-1.5-11.5c0.7-2.1,6-3.1,9.4-3.5c3.5-0.5,7.9-2.6,10.8,1.8c0.6,0.8,0.9,1.8,1.4,2.6c6.2-4.4,14.8-4,15.4-0.4
		c8.2-1.6,16.6-0.6,25.7-0.8c-1.1,1.4-1.6,2.2-2.4,3.2c6.4,0.6,12.6,1.3,18.8,1.9c0.4-0.6,0.7-1.2,1.1-1.8
		c-18-8.2-29.1-23.3-40.2-39.2c-5.5,3.3-10.7,6.2-15.8,9.4c-13.3,8.5-27.2,16.3-39.8,25.7c-16.8,13.1-36.8,18.8-54.3,29.7
		c-6.2,3.8-14.6,3.9-21.9,6c-1.4,0.5-2.6,2-3.4,3.7c-10.5,4.9-21.8,8.4-30.5,17.2c-4.4,4.5-9.5,4.7-15.2,2c-5.3-2.5-9-7.5-8.2-11.7
		c0.8-4.9,7.7-9.4,12.1-11.3c5.2-2.2,10.6-5.9,13.5-10.5c5.1-7.7,13.3-10.6,19.6-16.4c0.4-0.4,1.6,0.5,2.4,0.4
		c2.9-0.7,7.1-0.6,8.7-2.5c7.1-8.4,17.2-12.3,25.7-18.5c0.7-0.5,2.1-0.7,2.7-0.4c6.6,3.7,9.1-2.2,12.7-5.4c2.2-2,4.4-4.1,6.6-6.1
		C-244.8,244-244.4,244.4-244,244.8z M-77,181.7c-8.5,6-17.6,11.3-25.1,18.1c-6.1,5.5-16.6,9.3-13.5,20.7c0.9,3.7,3.5,6.8,5.2,10.4
		c6.8,14.5,13.4,29.1,20.3,43.6c3.5,7.5,5.3,14.8-1.4,22.3c17-1.2,33.1-2.4,49.4-3.4c-0.5-2.2-0.9-4.6-1.3-7.1
		c-1.5-11.1-2.9-22.1-4.7-33.1c-0.2-1.5-1.4-3.4-2.7-4.4c-9-6.2-12.7-11.5-3.8-19c0.6-0.5,0.8-1.4,1.8-3.1c-2.6,0.9-4.1,1.5-5.7,2.1
		c-2.7-6.2-12.3-10.6-4.5-19.7C-76.1,204.8-70.9,190.4-77,181.7z M-90.1,138c-4.5,2.1-8.4,0.2-10.1-4.5c-6.4,4-4.7,9.5,5.2,17.3
		C-85.8,146.5-85.7,146.3-90.1,138z M-68.4,196.6c1.2-1.4,1.6-1.6,1.6-2c-0.1-5.7-0.1-11.2-0.5-16.8c0-0.5-1.8-0.9-2.7-1.4
		c-0.5,1.1-1.6,2.2-1.4,3.2C-70.6,184.9-69.6,190.2-68.4,196.6z"/>
	<path class="st0" d="M-84.9,366c-9.7-0.7-16.5-5.9-23.3-12.1c1.3-0.1,2.2-0.1,5.1-0.4c-3.7-4.5-6.8-8.1-9.7-11.9
		c-1.6-2.2-3.2-4.6-4.2-7.1c-2.2-4.8-4.2-9.9-6.2-14.7c5.9,2.1,11.8,4.8,17.9,6.4c9.4,2.5,18.8,4.5,28.4,6c4.8,0.8,10,0,15,0.1
		c5.7,0.1,11.3,0.4,16.8,0.7c18.1,1.2,35.7-1.1,52.7-7.8c1.6-0.7,2.5-3.4,4.1-4.5c2-1.3,4.7-2.8,6.8-2.5c3.3,0.7,4,3.4,2.6,6.8
		c-0.9,2.4-0.1,5.2-0.6,7.8c-0.6,2.7-1.5,5.4-2.9,7.8c-0.9,1.5-2.8,2.5-4.6,3.9c4.1,2.6,7.9,4.7,11.4,7.3c3.7,2.7,4.6,6.4,2.2,10.4
		c-2.9,4.9-5.4,10.4-9.3,14.6c-2.9,3.2-7.4,5.3-11.5,6.8c-11.7,4.4-24,5.9-36.3,4.2c-10.2-1.4-20.6-3.7-30.5-7
		c-10.5-3.5-20.7-6.1-31.8-5.9c-7.1,0.1-14,0-21.1,0c0-0.6-0.1-1.3-0.1-1.9C-104.4,370.7-94.7,368.3-84.9,366z"/>
</g>
<g>
	<path class="st0" d="M-103.5,494.1c0-2.1,0.1-4.1,0-6.2c-0.2-4.5-0.7-9-0.8-13.5c-0.1-4.3,0.3-8.7,0.3-13c0-2.1-0.2-4.1-0.4-6.2
		c-0.4-4.8,1.6-8.7,4.3-12.4c2.8-3.7,6.3-6.6,10.7-8.1c1.8-0.6,3.7-1,5.5-1.1c2.4-0.2,4.8-0.1,7.1,0c0.6,0,1.3,0.3,1.9,0.5
		c0.5,0.2,1,0.6,1.5,0.8c4.6,1.1,7.5,4.7,10.6,7.9c2.2,2.2,3,5.1,3.5,8c0.4,2.3,0.4,4.7,0.5,7c0.2,14-0.1,28,0.6,42
		c0.3,5.8-2.2,10.2-4.3,15c-0.7,1.5-2.2,2.9-3.7,3.7c-3.2,1.8-6.5,3.6-9.9,4.7c-4.3,1.3-8.8,0.9-12.8-1.2c-3.5-1.8-7-3.8-10-6.3
		c-3.2-2.6-4.2-6.6-4.5-10.6C-103.7,501.5-103.5,497.8-103.5,494.1z M-92.3,497.4c0.1,2.7-0.2,5.1,0.5,7.3c1.5,5.3,5.2,7.6,10.5,8.1
		c2.3,0.2,4.5-0.2,6.3-1.8c2.1-1.9,4.4-3.5,4.4-6.8c0.1-8.6,0.2-17.2,0.4-25.8c0-2.9,0.3-5.7,0.4-8.5c0-1.2-0.1-2.3-0.2-3.5
		c-0.1-1.6-0.4-3.2-0.5-4.8c-0.1-2.1,0.1-4.3-0.1-6.5c-0.3-4.1-1.8-7.8-5.8-9.5c-1.6-0.7-3.7-0.5-5.5-0.6c-3.8-0.3-6.2,2.1-8.7,4.3
		c-0.5,0.5-0.9,1.4-1,2.1c-0.3,1.6-0.5,3.3-0.5,5c0,3.4,0.4,6.8,0.4,10.2c0,3.8-0.4,7.5-0.4,11.2c0,3.8,0.4,7.6,0.3,11.4
		C-91.8,492.1-92.1,495-92.3,497.4z"/>
	<path class="st0" d="M-151.1,461.4c0.1,2.8,0.4,6.6,0.4,10.4c0,2.6-0.3,5.1-0.4,7.7c-0.1,6.3,0.1,12.6-0.1,18.9
		c-0.2,4.8,1.6,8.6,4.8,11.8c1.4,1.4,3.1,2.1,5.1,2.1c1.5,0,3,0.1,4.5-0.2c3.4-0.6,5.5-3,6.9-6c1.6-3.3,1.3-6.8,0.9-10.2
		c-0.2-1.5-1.5-2.4-3.2-2.4c-1.6-0.1-3.3,0-4.8-0.3c-2.5-0.4-3.3-2.8-3.1-5.3c0-0.8,0.1-1.6,0-2.5c-0.3-1.6,0.4-3.1,2-3.6
		c0.9-0.3,1.9-0.4,2.8-0.4c4.3,0,8.6,0.1,12.9,0c4.2-0.1,5.7,2.6,5.2,6.5c-0.3,1.9-0.2,3.9-0.1,5.9c0.1,3,0.3,6,0.4,9
		c0.1,5.8,0,11.5,0,17.3c0,2.6-1.5,4.1-4,4.1c-0.6,0-1.1-0.1-1.7,0c-2.8,0.4-5-0.3-6.5-3c-0.5-1-1.4-1-2.4-0.5
		c-1.7,0.9-3.4,2.1-5.2,2.6c-3.2,0.9-6.5,1-9.7-0.3c-3.2-1.3-6.6-2.3-9-5c-2.6-2.8-5.6-5.4-6-9.6c-0.2-1.5-0.5-3.1-0.5-4.6
		c-0.2-3.6-0.3-7.3-0.4-10.9c0-1.4,0.4-2.9,0.3-4.3c-0.1-10.3,0.1-20.6-0.5-30.9c-0.3-4.8,0.9-8.8,3.3-12.7c1-1.6,1.8-3.5,2.9-5
		c2-2.6,4.8-3.9,7.9-4.8c4.9-1.5,9.8-2.2,14.9-1.1c2.1,0.5,4.1,1.3,6.2,2c0.3,0.1,0.6,0.5,0.9,0.8c1.3,1.4,2.4,2.9,3.7,4.3
		c3.2,3.6,5.1,7.7,5.5,12.5c0.1,1,0.4,2.1,0.4,3.1c0,1.6-1.6,2.8-3.2,2.6c-1.8-0.2-3.5-0.3-5.3-0.4c-2.4-0.1-3.3-0.8-3.2-3.3
		c0.2-3.5-1.1-6.3-3.7-8.4c-4.4-3.6-9.4-4.1-14-0.3c-1.1,1-2.4,2-3.3,3.2C-151.7,453.4-150.8,457-151.1,461.4z"/>
	<path class="st0" d="M-211.2,524.2c-1.1,0-2.3,0-3.4,0c-1.7-0.1-2.4-0.8-2.3-2.4c0.1-1.5,0.6-3,0.9-4.5c0.4-1.8,1-3.6,1-5.4
		c-0.1-3.4,0.9-6.5,1.7-9.7c1.2-5,2-10.2,3.1-15.2c0.9-4,1.8-8,2.7-11.9c0.1-0.5,0.4-1,0.4-1.5c-0.4-5.3,1.6-10.2,2.6-15.3
		c1-5.2,2.4-10.3,3.5-15.5c0.3-1.2,0.4-2.4,0.5-3.6c0.6-5.3,4.3-6.4,8.6-5.8c0.7,0.1,1.5,0.1,2.1,0.4c0.6,0.2,1.3,0.5,1.6,1
		c1,1.6,1.7,3.3,1.9,5.3c0.2,2.9,1,5.7,1.5,8.5c0.4,2.3,0.7,4.6,1.2,6.9c0.6,2.9,1.1,5.8,1.8,8.7c1.1,4.4,2.4,8.7,3.4,13.2
		c0.7,3.1,0.9,6.4,1.5,9.6c0.9,4.7,2.4,9.3,2.9,14.1c0.5,4.6,2.4,8.8,3,13.3c0.3,2,0.8,3.9,1,5.9c0.4,3.1-1.5,4.7-4.6,4
		c-0.8-0.2-1.6-0.2-2.5-0.2c-3.7,0-5.7-2-5.9-5.8c-0.1-1.6-0.2-3.1-0.4-4.6c-0.4-2.6-2.1-4-4.7-4.1c-1.6-0.1-3.2-0.4-4.8-0.4
		c-2.5,0-4.9,0.2-7.4,0.4c-1.4,0.1-2.4,0.9-2.7,2.4c-0.6,2.9-1.1,5.8-2,8.7c-1.1,3.8-1.4,3.9-5.3,3.9
		C-210.4,524.2-210.8,524.2-211.2,524.2z M-193.2,497.9c1,0,2,0,3,0c2.3-0.1,3.1-0.9,3-3.3c0-0.9-0.2-1.9-0.3-2.8
		c-1-5.8-2.1-11.6-3.2-17.4c-0.3-1.4-0.8-2.8-1.4-4.1c-0.2-0.5-1-0.9-1.6-0.9c-0.4,0-0.9,0.8-1,1.3c-0.5,2-0.7,4.1-1.4,6
		c-1.5,4.2-2.6,8.4-3,12.8c-0.1,1.6-0.3,3.2-0.3,4.8c0,2.5,1.3,3.5,3.7,3.5C-194.7,497.9-194,497.9-193.2,497.9z"/>
	<path class="st0" d="M-242.1,516.2c0-5.6,0-11.3,0-16.9c0.1-10.9,0.3-21.7,0.4-32.6c0.1-7.9,0.3-15.8,0.4-23.6
		c0-1.3-0.2-2.6-0.4-3.8c-0.3-2.1,0.7-5,2.6-5.5c2-0.5,4.4-0.1,6.4,0.5c1.9,0.6,2.7,2.4,2.6,4.5c-0.1,6.1-0.4,12.3-0.4,18.4
		c0,8,0.3,16,0.4,24c0.1,4.8,0.1,9.6,0,14.4c-0.1,4.2-0.3,8.4-0.4,12.6c0,3.7,0.3,7.4,0.4,11c0.1,3.3-1,4.3-4.1,4.2
		c-2-0.1-4.1-0.3-6.1-0.5c-1.1-0.1-1.5-1-1.5-2.1c0-1.5,0-3,0-4.5C-241.8,516.2-241.9,516.2-242.1,516.2z"/>
</g>
</svg>
