<?xml version="1.0" encoding="utf-8"?>
<!-- Generator: Adobe Illustrator 19.0.0, SVG Export Plug-In . SVG Version: 6.00 Build 0)  -->
<svg version="1.1" id="Layer_1" xmlns="http://www.w3.org/2000/svg" xmlns:xlink="http://www.w3.org/1999/xlink" x="0px" y="0px"
	 viewBox="0 0 524 264" style="enable-background:new 0 0 524 264;" xml:space="preserve">
<g>
	<path d="M392,176.3c0-5.8,0.2-11.6,0-17.4c-0.6-12.6-1.9-25.2-2.1-37.8c-0.2-12.1,0.8-24.2,0.9-36.3c0.1-5.8-0.6-11.5-1.1-17.3
		c-1.2-13.4,4.5-24.4,12.1-34.7c7.7-10.4,17.5-18.4,29.8-22.7c4.9-1.7,10.3-2.7,15.5-3.2c6.6-0.5,13.3-0.2,20-0.1
		c1.8,0,3.6,0.9,5.3,1.5c1.4,0.6,2.7,1.8,4.2,2.1c13,3.2,20.9,13.2,29.7,22.1c6.1,6.2,8.4,14.3,9.7,22.5c1,6.5,1.2,13.1,1.3,19.6
		c0.5,39.2-0.4,78.4,1.7,117.5c0.8,16.3-6.2,28.6-12.1,41.9c-1.9,4.2-6.2,8-10.4,10.4c-8.9,5.1-18.1,10.2-27.8,13.2
		c-11.9,3.6-24.5,2.4-35.7-3.3c-9.8-5-19.6-10.6-28.1-17.5c-8.9-7.3-11.7-18.6-12.6-29.7C391.4,197.1,392,186.7,392,176.3z
		 M423.5,185.6c0.4,7.6-0.5,14.3,1.3,20.3c4.3,14.7,14.6,21.2,29.5,22.6c6.5,0.6,12.6-0.5,17.6-5c5.8-5.2,12.3-9.9,12.4-18.9
		c0.3-24.1,0.6-48.2,1.1-72.3c0.1-8,0.8-15.9,1-23.9c0.1-3.3-0.3-6.5-0.6-9.8c-0.4-4.5-1.2-9-1.4-13.5c-0.2-6,0.2-12.1-0.2-18.1
		c-0.7-11.6-5-21.7-16.3-26.5c-4.6-2-10.3-1.4-15.5-1.8c-10.5-0.8-17.4,5.8-24.4,12.1c-1.5,1.4-2.5,3.8-2.8,5.8
		c-0.7,4.6-1.3,9.3-1.3,14c0.1,9.5,1,19.1,1,28.6c0,10.5-1,20.9-1,31.4c0,10.6,1,21.2,0.9,31.9C424.8,170.6,423.9,178.7,423.5,185.6
		z"/>
	<path d="M259,84.9c0.3,7.9,1.1,18.5,1.2,29.1c0.1,7.2-0.9,14.3-1,21.5c-0.2,17.6,0.4,35.3-0.2,52.9c-0.5,13.4,4.5,24,13.5,33.1
		c3.9,3.9,8.8,5.9,14.4,5.8c4.2,0,8.5,0.2,12.6-0.6c9.6-1.8,15.3-8.3,19.4-16.8c4.5-9.3,3.6-18.9,2.5-28.5c-0.5-4.1-4.2-6.6-8.9-6.8
		c-4.5-0.2-9.1-0.1-13.5-0.8c-7-1.1-9.2-7.9-8.8-14.9c0.1-2.3,0.3-4.6-0.1-6.9c-0.8-4.6,1.1-8.7,5.5-10c2.5-0.8,5.2-1.2,7.8-1.2
		c12-0.1,24,0.2,36-0.1c11.7-0.4,15.9,7.4,14.5,18.2c-0.7,5.4-0.5,10.9-0.4,16.4c0.2,8.4,0.9,16.9,1,25.3c0.2,16.2,0.1,32.3,0,48.5
		c0,7.2-4.2,11.4-11.3,11.5c-1.6,0-3.2-0.2-4.7,0c-7.9,1.1-14.1-0.9-18.1-8.4c-1.4-2.7-4-2.7-6.6-1.4c-4.8,2.5-9.5,5.8-14.6,7.2
		c-9,2.4-18.2,2.7-27.1-0.9c-9-3.6-18.5-6.5-25.2-13.9c-7.2-7.9-15.6-15.2-16.9-26.9c-0.5-4.3-1.3-8.7-1.5-13
		c-0.5-10.1-0.9-20.3-1-30.5c-0.1-4,1-8.1,0.9-12.1c-0.3-28.8,0.2-57.7-1.4-86.4c-0.8-13.4,2.4-24.5,9.1-35.4
		c2.8-4.6,5-9.7,8.2-14.1c5.5-7.3,13.4-10.9,22-13.5c13.7-4.1,27.5-6.1,41.7-3c5.9,1.3,11.6,3.7,17.4,5.7c0.9,0.3,1.7,1.3,2.4,2.1
		c3.5,4,6.8,8.2,10.3,12.1c9,10,14.2,21.5,15.5,34.9c0.3,2.9,1,5.9,1,8.8c-0.1,4.6-4.4,7.9-9,7.4c-5-0.5-9.9-0.9-14.9-1.1
		c-6.7-0.2-9.2-2.2-8.9-9.1c0.5-9.7-3-17.6-10.3-23.6c-12.3-10.2-26.4-11.6-39.2-0.7c-3.2,2.8-6.7,5.5-9.1,9
		C257.2,62.4,259.7,72.6,259,84.9z"/>
	<path d="M90.7,260.5c-3.1,0-6.3,0.1-9.4,0c-4.7-0.2-6.7-2.1-6.3-6.7c0.3-4.3,1.6-8.5,2.4-12.7c1-5,2.9-10.1,2.8-15.1
		c-0.3-9.5,2.6-18.2,4.7-27.1c3.3-14.1,5.7-28.4,8.7-42.6c2.4-11.2,5-22.3,7.6-33.4c0.3-1.4,1.1-2.7,1-4.1
		c-1.1-14.9,4.6-28.6,7.4-42.9c2.8-14.6,6.6-28.9,9.9-43.4c0.8-3.3,1.1-6.8,1.5-10.2c1.8-14.7,11.9-17.9,24-16.2c2,0.3,4.1,0.4,6,1
		c1.7,0.5,3.7,1.3,4.6,2.7c2.8,4.5,4.8,9.1,5.2,14.8c0.6,8,2.8,15.9,4.2,23.9c1.1,6.4,2,12.9,3.3,19.3c1.6,8.1,3.1,16.3,5.1,24.3
		c3,12.3,6.8,24.4,9.6,36.8c2,8.8,2.4,17.9,4.2,26.8c2.5,13.2,6.7,26.1,8.1,39.4c1.4,12.9,6.8,24.6,8.5,37.2
		c0.7,5.6,2.2,11,2.9,16.6c1.1,8.7-4.3,13.2-12.9,11.2c-2.3-0.5-4.6-0.6-7-0.6c-10.4-0.1-16-5.6-16.4-16.2c-0.2-4.4-0.5-8.7-1.1-13
		c-1-7.3-5.9-11.2-13.2-11.5c-4.5-0.2-9-1.1-13.5-1c-6.9,0.1-13.7,0.5-20.6,1.2c-3.8,0.4-6.7,2.6-7.6,6.6
		c-1.8,8.1-3.2,16.3-5.5,24.2c-3.1,10.6-3.8,10.8-14.9,10.8C92.9,260.5,91.8,260.5,90.7,260.5z M141.2,186.9c2.8,0,5.7,0.1,8.5,0
		c6.5-0.4,8.6-2.5,8.5-9.1c-0.1-2.6-0.5-5.3-0.9-7.9c-2.9-16.3-5.8-32.5-8.9-48.8c-0.8-3.9-2.1-7.9-3.8-11.5
		c-0.6-1.3-2.9-2.5-4.4-2.5c-1,0-2.4,2.2-2.8,3.6c-1.4,5.6-2,11.4-3.9,16.8c-4.1,11.7-7.4,23.5-8.3,35.9c-0.3,4.5-0.9,9-0.9,13.5
		c0.1,6.9,3.5,9.8,10.4,9.9C136.8,186.9,139,186.9,141.2,186.9z"/>
	<path d="M4.4,238.1c0-15.8-0.1-31.6,0-47.4c0.3-30.4,0.8-60.7,1.2-91.1C6,77.6,6.4,55.5,6.7,33.5c0-3.6-0.5-7.2-1-10.7
		c-0.9-5.9,1.9-14,7.4-15.3c5.6-1.3,12.3-0.3,18,1.4c5.2,1.6,7.5,6.7,7.4,12.5c-0.4,17.2-1,34.4-1,51.6c0,22.4,0.7,44.8,1,67.1
		c0.2,13.4,0.2,26.8,0,40.2c-0.2,11.7-0.9,23.4-1,35.2c0,10.3,0.8,20.6,1,30.9c0.2,9.1-2.7,12-11.6,11.7c-5.7-0.2-11.5-0.7-17.2-1.5
		c-3.1-0.4-4.3-2.7-4.2-5.8c0.1-4.2,0-8.5,0-12.7C5.2,238.1,4.8,238.1,4.4,238.1z"/>
</g>
</svg>
